<svg xmlns="http://www.w3.org/2000/svg" width="44" height="44" fill="none" viewBox="0 0 44 44">
    <g id="logo">
        <path d="M1.293,11.293l4-4A1,1,0,1,1,6.707,8.707L3.414,12l3.293,3.293a1,1,0,1,1-1.414,1.414l-4-4A1,1,0,0,1,1.293,11.293Zm17.414-4a1,1,0,1,0-1.414,1.414L20.586,12l-3.293,3.293a1,1,0,1,0,1.414,1.414l4-4a1,1,0,0,0,0-1.414ZM13.039,4.726l-4,14a1,1,0,0,0,.686,1.236A1.053,1.053,0,0,0,10,20a1,1,0,0,0,.961-.726l4-14a1,1,0,1,0-1.922-.548Z"
              fill="#231f20"/>
    </g>

    <g id="html">
        <path d="m3 2 1.578 17.824L12 22l7.467-2.175L21 2H3Zm14.049 6.048H9.075l.172
    2.016h7.697l-.626 6.565-4.246 1.381-4.281-1.455-.288-2.932h2.024l.16 1.411 2.4.815
    2.346-.763.297-3.005H7.416l-.562-6.05h10.412l-.217 2.017Z" fill="#231f20"/>
    </g>

    <g id="css">
        <path d="m3 2 1.578 17.834L12 22l7.468-2.165L21 2H3Zm13.3 14.722-4.293 1.204H12l-4.297-1.204-.297-3.167h2.108l.15
    1.526 2.335.639 2.34-.64.245-3.05h-7.27l-.187-2.006h7.64l.174-2.006H6.924l-.176-2.006h10.506l-.954 10.71Z"
              fill="#231f20"/>
    </g>

    <g id="react">
        <path d="M11.103,10.43793a1.78593,1.78593,0,1,0,2.43957.65362A1.786,1.786,0,0,0,11.103,10.43793Zm8.0047,1.93768q-.17587-.201-.37116-.40308.13641-.14337.264-.28649c1.60583-1.80427,2.28357-3.61371,1.65558-4.70154-.60217-1.043-2.39343-1.35382-4.63593-.91779q-.33132.06482-.659.14624-.06272-.21624-.13343-.43C14.467,3.49042,13.2381,1.99921,11.98206,2,10.77765,2.00055,9.61359,3.39709,8.871,5.5575q-.10959.31969-.20276.64471-.21908-.05375-.44-.0993c-2.366-.48578-4.27167-.16584-4.89844.9226-.601,1.04376.02753,2.74982,1.52851,4.47211q.22329.25562.45922.49976c-.18542.191-.361.38189-.52465.57171-1.4646,1.698-2.05719,3.37616-1.45716,4.41541.61969,1.07348,2.49854,1.42437,4.7854.97436q.278-.05511.55292-.124.10071.35156.22095.697c.73932,2.11706,1.89685,3.46863,3.097,3.4682,1.23944-.00073,2.48194-1.45288,3.23474-3.65875.05945-.17432.11573-.35535.16907-.54175q.35514.08835.71485.1568c2.20336.41687,3.95251.089,4.55145-.951C21.28058,15.93109,20.64288,14.12933,19.10767,12.37561ZM4.07019,7.45184c.38586-.67,1.94324-.93139,3.98608-.512q.19584.04027.39838.09a20.464,20.464,0,0,0-.42126,2.67767,20.88659,20.88659,0,0,0-2.10389,1.6936q-.21945-.22695-.42718-.4649l.00006.00006C4.21631,9.46057,3.708,8.08081,4.07019,7.45184Zm3.88666,5.72809c-.51056-.3866-.98505-.78265-1.41571-1.181.43036-.39587.90515-.79059,1.41467-1.17615q-.02746.58915-.02722,1.1792Q7.929,12.59117,7.95685,13.17993Zm-.00061,3.94061a7.23675,7.23675,0,0,1-2.63971.09314,1.766,1.766,0,0,1-1.241-.65631c-.36407-.63067.11176-1.978,1.36432-3.43023q.23621-.273.48791-.53174a20.49026,20.49026,0,0,0,2.10712,1.70007,20.80226,20.80226,0,0,0,.42621,2.712Q8.21011,17.07023,7.95624,17.12054Zm7.10113-8.03936q-.50309-.317-1.01861-.61365-.5073-.292-1.0268-.56207c.593-.24933,1.17591-.46228,1.73865-.63581A18.21775,18.21775,0,0,1,15.05737,9.08118ZM9.679,5.83521c.63623-1.85114,1.57763-2.98053,2.30352-2.98084.77308-.00037,1.77753,1.21826,2.43433,3.19763q.064.19355.121.38928a20.478,20.478,0,0,0-2.52716.9712,20.06145,20.06145,0,0,0-2.519-.98194Q9.578,6.13062,9.679,5.83521ZM9.27863,7.259a18.30717,18.30717,0,0,1,1.72967.642Q9.95746,8.4433,8.96094,9.0824C9.0412,8.4444,9.148,7.83313,9.27863,7.259ZM8.9624,14.91968q.49695.31813,1.00843.61273.52174.30039,1.05737.57556a18.19577,18.19577,0,0,1-1.74445.66492C9.15161,16.1908,9.04364,15.56879,8.9624,14.91968Zm5.45569,3.14551A7.23556,7.23556,0,0,1,13.18,20.39844l-.00006.00006a1.76585,1.76585,0,0,1-1.18841.747c-.72821.00042-1.65766-1.085-2.28992-2.89545q-.11169-.32108-.20551-.648a20.10863,20.10863,0,0,0,2.52918-1.0097,20.79976,20.79976,0,0,0,2.54736.97851Q14.50141,17.81983,14.41809,18.06519Zm.36224-1.32422c-.56921-.176-1.16058-.39252-1.76214-.64551q.50867-.2677,1.02472-.56543.52955-.30579,1.0321-.62689A18.1524,18.1524,0,0,1,14.78033,16.741Zm.44629-4.74268q.00111.91095-.05688,1.82044c-.49268.33343-1.01282.659-1.554.97143-.53894.31116-1.07293.59711-1.59674.8559q-.82682-.39624-1.62176-.854-.79047-.455-1.54468-.969-.06894-.90921-.06946-1.82172l.00012.00019q-.00063-.91187.06794-1.82184c.49255-.33637,1.00891-.66168,1.54278-.96991.53632-.30969,1.077-.59442,1.61469-.85248q.81664.39688,1.60382.85065.78992.454,1.549.95868.06519.91443.06524,1.83166Zm.95673-5.09283c1.92133-.37372,3.37-.12232,3.73291.50622.3866.66962-.16748,2.1485-1.55383,3.70636l-.00006.00006q-.1149.12891-.23841.25891A20.06118,20.06118,0,0,0,15.98,9.68915a20.04054,20.04054,0,0,0-.40546-2.64893Q15.88486,6.96387,16.18335,6.90546Zm-.12988,3.8847A18.16447,18.16447,0,0,1,17.51483,11.978a18.11912,18.11912,0,0,1-1.45672,1.20831q.02325-.59391.02288-1.18842Q16.08072,11.39389,16.05347,10.79016Zm3.8681,5.78876c-.36346.63116-1.76788.89435-3.65222.53784q-.32391-.06115-.66474-.14557a20.069,20.069,0,0,0,.38746-2.68176,19.93914,19.93914,0,0,0,2.13708-1.71588q.17643.18329.33563.36487v-.00007a7.23437,7.23437,0,0,1,1.40308,2.23792A1.76563,1.76563,0,0,1,19.92157,16.57892Z"
              fill="#231f20"/>
    </g>

    <g id="styled">
        <path d="M16.214 6.762l-.075.391c-.116.741-.074.953.244 1.228l.307.254-.318 1.418c-.19.846-.423 1.555-.571 1.788-.127.201-.275.497-.307.656-.053.19-.233.381-.508.55-.243.138-.72.508-1.058.805-.27.243-.456.392-.557.456l-.33.261c-.106.17-.166.307-.189.411-.023.107-.01.178.024.23.033.05.09.085.168.107a.954.954 0 00.282.023 3 3 0 00.632-.112c.07-.019.125-.037.173-.053.074-.091.245-.263.548-.562.804-.793 1.111-1.227.794-1.11-.117.042-.064-.064.137-.276.424-.413.667-1.037 1.175-2.994.402-1.545.402-1.567.698-1.567.139 0 .532.024.532.024V6.762h-.902zm3.839 3.165c-.064 0-.17.096-.233.202-.116.19.021.306 1.767 1.396 1.037.657 1.873 1.217 1.852 1.26-.021.031-.868.582-1.883 1.217-1.842 1.142-1.852 1.153-1.683 1.386.212.275 0 .37 2.391-1.122L24 13.155v-.836l-1.937-1.196c-1.047-.656-1.957-1.185-2.01-1.196zm-16.085.117c-.053 0-.963.54-2.01 1.185L0 12.425v.836l1.947 1.217c1.08.666 1.99 1.217 2.032 1.217.042 0 .127-.096.212-.212.127-.201.02-.286-1.768-1.418C.72 12.996.54 12.848.71 12.732c.106-.074.91-.572 1.778-1.111 1.979-1.217 1.873-1.133 1.714-1.387-.063-.105-.17-.2-.233-.19zm8.684.023c-.292-.002-.92.443-2.8 1.978-.081.193-.088.326-.051.412.024.059.068.1.129.13.06.03.138.048.224.055.171.015.373-.012.536-.044l.11-.025a.386.386 0 01.144-.118c.116-.064.603-.508 1.09-.984.857-.868 1.058-1.26.709-1.387a.24.24 0 00-.09-.017zm2.196.603c-.257.007-.72.305-1.513.938-.398.323-.65.497-.785.533l-.524.414c-.197.36-.226.583-.174.706a.25.25 0 00.138.134.644.644 0 00.24.045 2.18 2.18 0 00.58-.085 3.466 3.466 0 00.291-.092l.029-.012.053-.028c.1-.129.33-.372.618-.652.91-.878 1.375-1.502 1.28-1.735-.043-.113-.117-.17-.233-.166zm-2.424 1.08c-.074.008-.24.136-.539.398-.432.382-.903.602-1.066.504a3.97 3.97 0 01-.114.024c-.166.033-.373.06-.558.045a.708.708 0 01-.252-.063.337.337 0 01-.168-.17c-.037-.09-.037-.202.005-.345l-.65.534-1.471 1.217V15.867l4.82-3.797a.41.41 0 01.016-.123c.037-.134.035-.202-.023-.196zm2.074.639c-.073 0-.195.103-.39.31-.265.283-.682.557-.903.613l-.034.018a2.191 2.191 0 01-.11.042c-.06.02-.138.044-.228.068-.18.049-.404.094-.604.089a.732.732 0 01-.275-.054.344.344 0 01-.184-.18c-.058-.139-.035-.334.092-.611L7.61 16.033v1.205h1.868l3.962-3.112c.103-.114.258-.27.467-.465.56-.519.687-.698.687-.963 0-.206-.023-.31-.096-.31zm.943 1.95l-.339.338c-.19.18-.529.402-.761.497l-.046.02-.003.005-.01.01c-.009.007-.013.008-.02.011a3.432 3.432 0 01-.282.093 3.058 3.058 0 01-.65.115 1.035 1.035 0 01-.31-.027.364.364 0 01-.218-.144c-.048-.074-.062-.173-.035-.295a1.11 1.11 0 01.095-.25l-3.197 2.526h4.252l.508-.582c.698-.814 1.016-1.396 1.016-1.894z"
              fill="#231f20"/>
    </g>

    <g id="ts">
        <path fill-rule="nonzero" clip-rule="nonzero" d="M0 1.75C0 0.783501 0.783502 0 1.75 0H14.25C15.2165 0 16
0.783502 16 1.75V3.75C16 4.16421 15.6642 4.5 15.25 4.5C14.8358 4.5 14.5 4.16421 14.5 3.75V1.75C14.5 1.61193
14.3881 1.5 14.25 1.5H1.75C1.61193 1.5 1.5 1.61193 1.5 1.75V14.25C1.5 14.3881 1.61193 14.5 1.75 14.5H15.25C15.6642
14.5 16 14.8358 16 15.25C16 15.6642 15.6642 16 15.25 16H1.75C0.783501 16 0 15.2165 0 14.25V1.75ZM4.75 6.5C4.75 6.08579
5.08579 5.75 5.5 5.75H9.25C9.66421 5.75 10 6.08579 10 6.5C10 6.91421 9.66421 7.25 9.25 7.25H8.25V12.5C8.25 12.9142
7.91421 13.25 7.5 13.25C7.08579 13.25 6.75 12.9142 6.75 12.5V7.25H5.5C5.08579 7.25 4.75 6.91421 4.75 6.5ZM11.2757
6.58011C11.6944 6.08164 12.3507 5.75 13.25 5.75C14.0849 5.75 14.7148 6.03567 15.1394 6.48481C15.4239 6.78583 15.4105
7.26052 15.1095 7.54505C14.8085 7.82958 14.3338 7.81621 14.0493 7.51519C13.9394 7.39898 13.7204 7.25 13.25 7.25C12.7493
7.25 12.5306 7.41836 12.4243 7.54489C12.2934 7.70065 12.25 7.896 12.25 8C12.25 8.104 12.2934 8.29935 12.4243
8.45511C12.5306 8.58164 12.7493 8.75 13.25 8.75C13.3257 8.75 13.3988 8.76121 13.4676 8.78207C14.1307 8.87646 14.6319
9.17251 14.9743 9.58011C15.3684 10.0493 15.5 10.604 15.5 11C15.5 11.396 15.3684 11.9507 14.9743 12.4199C14.5556 12.9184
13.8993 13.25 13 13.25C12.1651 13.25 11.5352 12.9643 11.1106 12.5152C10.8261 12.2142 10.8395 11.7395 11.1405
11.4549C11.4415 11.1704 11.9162 11.1838 12.2007 11.4848C12.3106 11.601 12.5296 11.75 13 11.75C13.5007 11.75 13.7194
11.5816 13.8257 11.4551C13.9566 11.2993 14 11.104 14 11C14 10.896 13.9566 10.7007 13.8257 10.5449C13.7194 10.4184
13.5007 10.25 13 10.25C12.9243 10.25 12.8512 10.2388 12.7824 10.2179C12.1193 10.1235 11.6181 9.82749 11.2757
9.41989C10.8816 8.95065 10.75 8.396 10.75 8C10.75 7.604 10.8816 7.04935 11.2757 6.58011Z" fill="#231f20"/>
    </g>

    <g id="quote">
        <path fill-rule="evenodd" clip-rule="evenodd" d="M16.9861 9.98212C16.5475 9.98211 16.169 9.9821 15.8557 10.0035C15.5259 10.026 15.196 10.0755 14.8701 10.2105C14.135 10.515 13.551 11.099 13.2465 11.8341C13.1115 12.16 13.062 12.4899 13.0395 12.8197C12.9905 13.5374 13.0181 14.2631 13.0181 14.9821C13.0181 16.639 14.3613 17.9821 16.0181 17.9821H17.0181V18.229C17.0181 19.7668 18.8774 20.537 19.9649 19.4496C20.1938 19.2206 20.4226 18.9914 20.6519 18.7627C21.1326 18.2835 21.5593 17.8582 21.7898 17.3017C22.0202 16.7453 22.0193 16.1429 22.0183 15.4641C22.0169 14.5582 22.0626 13.6399 21.9708 12.7378C21.9207 12.2446 21.8091 11.7593 21.5125 11.3154C21.2936 10.9878 21.0124 10.7066 20.6848 10.4877C20.2409 10.1911 19.7556 10.0796 19.2624 10.0294C18.5081 9.95266 17.7435 9.98212 16.9861 9.98212Z" fill="#323232"/>
        <path fill-rule="evenodd" clip-rule="evenodd" d="M5.97575 4.00556C5.5371 4.00555 5.15861 4.00554 4.84535 4.02691C4.51553 4.04941 4.18562 4.09892 3.85969 4.23392C3.1246 4.5384 2.54058 5.12243 2.2361 5.85751C2.10109 6.18344 2.05159 6.51335 2.02909 6.84318C1.98012 7.56087 2.00774 8.28654 2.00774 9.00556C2.00774 10.6624 3.35088 12.0056 5.00774 12.0056H6.00774V12.2524C6.00774 13.7903 7.86707 14.5604 8.95449 13.473C9.18347 13.244 9.4122 13.0148 9.64153 12.7862C10.1223 12.3069 10.5489 11.8816 10.7794 11.3252C11.0098 10.7688 11.0089 10.1663 11.0079 9.48753C11.0065 8.58163 11.0522 7.66333 10.9605 6.76128C10.9103 6.26804 10.7988 5.78277 10.5021 5.33885C10.2833 5.01128 10.002 4.73003 9.67445 4.51115C9.23053 4.21453 8.74526 4.103 8.25202 4.05283C7.49772 3.97609 6.73317 4.00556 5.97575 4.00556Z" fill="#323232"/>

    </g>
</svg>