<svg xmlns="http://www.w3.org/2000/svg" width="44" height="44" fill="#231f20" viewBox="0 0 44 44">
    <g id="logo">
        <path d="M1.293,11.293l4-4A1,1,0,1,1,6.707,8.707L3.414,12l3.293,3.293a1,1,0,1,1-1.414,1.414l-4-4A1,1,0,0,1,1.293,11.293Zm17.414-4a1,1,0,1,0-1.414,1.414L20.586,12l-3.293,3.293a1,1,0,1,0,1.414,1.414l4-4a1,1,0,0,0,0-1.414ZM13.039,4.726l-4,14a1,1,0,0,0,.686,1.236A1.053,1.053,0,0,0,10,20a1,1,0,0,0,.961-.726l4-14a1,1,0,1,0-1.922-.548Z"
              fill="#DBEBEA"/>
    </g>

    <g id="html">
        <path d="m3 2 1.578 17.824L12 22l7.467-2.175L21 2H3Zm14.049 6.048H9.075l.172
    2.016h7.697l-.626 6.565-4.246 1.381-4.281-1.455-.288-2.932h2.024l.16 1.411 2.4.815
    2.346-.763.297-3.005H7.416l-.562-6.05h10.412l-.217 2.017Z" fill="#231f20"/>
    </g>

    <g id="css">
        <path d="m3 2 1.578 17.834L12 22l7.468-2.165L21 2H3Zm13.3 14.722-4.293 1.204H12l-4.297-1.204-.297-3.167h2.108l.15
    1.526 2.335.639 2.34-.64.245-3.05h-7.27l-.187-2.006h7.64l.174-2.006H6.924l-.176-2.006h10.506l-.954 10.71Z"
              fill="#231f20"/>
    </g>

    <g id="react">
        <path d="M11.103,10.43793a1.78593,1.78593,0,1,0,2.43957.65362A1.786,1.786,0,0,0,11.103,10.43793Zm8.0047,1.93768q-.17587-.201-.37116-.40308.13641-.14337.264-.28649c1.60583-1.80427,2.28357-3.61371,1.65558-4.70154-.60217-1.043-2.39343-1.35382-4.63593-.91779q-.33132.06482-.659.14624-.06272-.21624-.13343-.43C14.467,3.49042,13.2381,1.99921,11.98206,2,10.77765,2.00055,9.61359,3.39709,8.871,5.5575q-.10959.31969-.20276.64471-.21908-.05375-.44-.0993c-2.366-.48578-4.27167-.16584-4.89844.9226-.601,1.04376.02753,2.74982,1.52851,4.47211q.22329.25562.45922.49976c-.18542.191-.361.38189-.52465.57171-1.4646,1.698-2.05719,3.37616-1.45716,4.41541.61969,1.07348,2.49854,1.42437,4.7854.97436q.278-.05511.55292-.124.10071.35156.22095.697c.73932,2.11706,1.89685,3.46863,3.097,3.4682,1.23944-.00073,2.48194-1.45288,3.23474-3.65875.05945-.17432.11573-.35535.16907-.54175q.35514.08835.71485.1568c2.20336.41687,3.95251.089,4.55145-.951C21.28058,15.93109,20.64288,14.12933,19.10767,12.37561ZM4.07019,7.45184c.38586-.67,1.94324-.93139,3.98608-.512q.19584.04027.39838.09a20.464,20.464,0,0,0-.42126,2.67767,20.88659,20.88659,0,0,0-2.10389,1.6936q-.21945-.22695-.42718-.4649l.00006.00006C4.21631,9.46057,3.708,8.08081,4.07019,7.45184Zm3.88666,5.72809c-.51056-.3866-.98505-.78265-1.41571-1.181.43036-.39587.90515-.79059,1.41467-1.17615q-.02746.58915-.02722,1.1792Q7.929,12.59117,7.95685,13.17993Zm-.00061,3.94061a7.23675,7.23675,0,0,1-2.63971.09314,1.766,1.766,0,0,1-1.241-.65631c-.36407-.63067.11176-1.978,1.36432-3.43023q.23621-.273.48791-.53174a20.49026,20.49026,0,0,0,2.10712,1.70007,20.80226,20.80226,0,0,0,.42621,2.712Q8.21011,17.07023,7.95624,17.12054Zm7.10113-8.03936q-.50309-.317-1.01861-.61365-.5073-.292-1.0268-.56207c.593-.24933,1.17591-.46228,1.73865-.63581A18.21775,18.21775,0,0,1,15.05737,9.08118ZM9.679,5.83521c.63623-1.85114,1.57763-2.98053,2.30352-2.98084.77308-.00037,1.77753,1.21826,2.43433,3.19763q.064.19355.121.38928a20.478,20.478,0,0,0-2.52716.9712,20.06145,20.06145,0,0,0-2.519-.98194Q9.578,6.13062,9.679,5.83521ZM9.27863,7.259a18.30717,18.30717,0,0,1,1.72967.642Q9.95746,8.4433,8.96094,9.0824C9.0412,8.4444,9.148,7.83313,9.27863,7.259ZM8.9624,14.91968q.49695.31813,1.00843.61273.52174.30039,1.05737.57556a18.19577,18.19577,0,0,1-1.74445.66492C9.15161,16.1908,9.04364,15.56879,8.9624,14.91968Zm5.45569,3.14551A7.23556,7.23556,0,0,1,13.18,20.39844l-.00006.00006a1.76585,1.76585,0,0,1-1.18841.747c-.72821.00042-1.65766-1.085-2.28992-2.89545q-.11169-.32108-.20551-.648a20.10863,20.10863,0,0,0,2.52918-1.0097,20.79976,20.79976,0,0,0,2.54736.97851Q14.50141,17.81983,14.41809,18.06519Zm.36224-1.32422c-.56921-.176-1.16058-.39252-1.76214-.64551q.50867-.2677,1.02472-.56543.52955-.30579,1.0321-.62689A18.1524,18.1524,0,0,1,14.78033,16.741Zm.44629-4.74268q.00111.91095-.05688,1.82044c-.49268.33343-1.01282.659-1.554.97143-.53894.31116-1.07293.59711-1.59674.8559q-.82682-.39624-1.62176-.854-.79047-.455-1.54468-.969-.06894-.90921-.06946-1.82172l.00012.00019q-.00063-.91187.06794-1.82184c.49255-.33637,1.00891-.66168,1.54278-.96991.53632-.30969,1.077-.59442,1.61469-.85248q.81664.39688,1.60382.85065.78992.454,1.549.95868.06519.91443.06524,1.83166Zm.95673-5.09283c1.92133-.37372,3.37-.12232,3.73291.50622.3866.66962-.16748,2.1485-1.55383,3.70636l-.00006.00006q-.1149.12891-.23841.25891A20.06118,20.06118,0,0,0,15.98,9.68915a20.04054,20.04054,0,0,0-.40546-2.64893Q15.88486,6.96387,16.18335,6.90546Zm-.12988,3.8847A18.16447,18.16447,0,0,1,17.51483,11.978a18.11912,18.11912,0,0,1-1.45672,1.20831q.02325-.59391.02288-1.18842Q16.08072,11.39389,16.05347,10.79016Zm3.8681,5.78876c-.36346.63116-1.76788.89435-3.65222.53784q-.32391-.06115-.66474-.14557a20.069,20.069,0,0,0,.38746-2.68176,19.93914,19.93914,0,0,0,2.13708-1.71588q.17643.18329.33563.36487v-.00007a7.23437,7.23437,0,0,1,1.40308,2.23792A1.76563,1.76563,0,0,1,19.92157,16.57892Z"
              fill="#231f20"/>
    </g>

    <g id="styled">
        <path d="M16.214 6.762l-.075.391c-.116.741-.074.953.244 1.228l.307.254-.318 1.418c-.19.846-.423 1.555-.571 1.788-.127.201-.275.497-.307.656-.053.19-.233.381-.508.55-.243.138-.72.508-1.058.805-.27.243-.456.392-.557.456l-.33.261c-.106.17-.166.307-.189.411-.023.107-.01.178.024.23.033.05.09.085.168.107a.954.954 0 00.282.023 3 3 0 00.632-.112c.07-.019.125-.037.173-.053.074-.091.245-.263.548-.562.804-.793 1.111-1.227.794-1.11-.117.042-.064-.064.137-.276.424-.413.667-1.037 1.175-2.994.402-1.545.402-1.567.698-1.567.139 0 .532.024.532.024V6.762h-.902zm3.839 3.165c-.064 0-.17.096-.233.202-.116.19.021.306 1.767 1.396 1.037.657 1.873 1.217 1.852 1.26-.021.031-.868.582-1.883 1.217-1.842 1.142-1.852 1.153-1.683 1.386.212.275 0 .37 2.391-1.122L24 13.155v-.836l-1.937-1.196c-1.047-.656-1.957-1.185-2.01-1.196zm-16.085.117c-.053 0-.963.54-2.01 1.185L0 12.425v.836l1.947 1.217c1.08.666 1.99 1.217 2.032 1.217.042 0 .127-.096.212-.212.127-.201.02-.286-1.768-1.418C.72 12.996.54 12.848.71 12.732c.106-.074.91-.572 1.778-1.111 1.979-1.217 1.873-1.133 1.714-1.387-.063-.105-.17-.2-.233-.19zm8.684.023c-.292-.002-.92.443-2.8 1.978-.081.193-.088.326-.051.412.024.059.068.1.129.13.06.03.138.048.224.055.171.015.373-.012.536-.044l.11-.025a.386.386 0 01.144-.118c.116-.064.603-.508 1.09-.984.857-.868 1.058-1.26.709-1.387a.24.24 0 00-.09-.017zm2.196.603c-.257.007-.72.305-1.513.938-.398.323-.65.497-.785.533l-.524.414c-.197.36-.226.583-.174.706a.25.25 0 00.138.134.644.644 0 00.24.045 2.18 2.18 0 00.58-.085 3.466 3.466 0 00.291-.092l.029-.012.053-.028c.1-.129.33-.372.618-.652.91-.878 1.375-1.502 1.28-1.735-.043-.113-.117-.17-.233-.166zm-2.424 1.08c-.074.008-.24.136-.539.398-.432.382-.903.602-1.066.504a3.97 3.97 0 01-.114.024c-.166.033-.373.06-.558.045a.708.708 0 01-.252-.063.337.337 0 01-.168-.17c-.037-.09-.037-.202.005-.345l-.65.534-1.471 1.217V15.867l4.82-3.797a.41.41 0 01.016-.123c.037-.134.035-.202-.023-.196zm2.074.639c-.073 0-.195.103-.39.31-.265.283-.682.557-.903.613l-.034.018a2.191 2.191 0 01-.11.042c-.06.02-.138.044-.228.068-.18.049-.404.094-.604.089a.732.732 0 01-.275-.054.344.344 0 01-.184-.18c-.058-.139-.035-.334.092-.611L7.61 16.033v1.205h1.868l3.962-3.112c.103-.114.258-.27.467-.465.56-.519.687-.698.687-.963 0-.206-.023-.31-.096-.31zm.943 1.95l-.339.338c-.19.18-.529.402-.761.497l-.046.02-.003.005-.01.01c-.009.007-.013.008-.02.011a3.432 3.432 0 01-.282.093 3.058 3.058 0 01-.65.115 1.035 1.035 0 01-.31-.027.364.364 0 01-.218-.144c-.048-.074-.062-.173-.035-.295a1.11 1.11 0 01.095-.25l-3.197 2.526h4.252l.508-.582c.698-.814 1.016-1.396 1.016-1.894z"
              fill="#231f20"/>
    </g>

    <g id="ts">
        <path fill-rule="nonzero" clip-rule="nonzero" d="M0 1.75C0 0.783501 0.783502 0 1.75 0H14.25C15.2165 0 16
0.783502 16 1.75V3.75C16 4.16421 15.6642 4.5 15.25 4.5C14.8358 4.5 14.5 4.16421 14.5 3.75V1.75C14.5 1.61193
14.3881 1.5 14.25 1.5H1.75C1.61193 1.5 1.5 1.61193 1.5 1.75V14.25C1.5 14.3881 1.61193 14.5 1.75 14.5H15.25C15.6642
14.5 16 14.8358 16 15.25C16 15.6642 15.6642 16 15.25 16H1.75C0.783501 16 0 15.2165 0 14.25V1.75ZM4.75 6.5C4.75 6.08579
5.08579 5.75 5.5 5.75H9.25C9.66421 5.75 10 6.08579 10 6.5C10 6.91421 9.66421 7.25 9.25 7.25H8.25V12.5C8.25 12.9142
7.91421 13.25 7.5 13.25C7.08579 13.25 6.75 12.9142 6.75 12.5V7.25H5.5C5.08579 7.25 4.75 6.91421 4.75 6.5ZM11.2757
6.58011C11.6944 6.08164 12.3507 5.75 13.25 5.75C14.0849 5.75 14.7148 6.03567 15.1394 6.48481C15.4239 6.78583 15.4105
7.26052 15.1095 7.54505C14.8085 7.82958 14.3338 7.81621 14.0493 7.51519C13.9394 7.39898 13.7204 7.25 13.25 7.25C12.7493
7.25 12.5306 7.41836 12.4243 7.54489C12.2934 7.70065 12.25 7.896 12.25 8C12.25 8.104 12.2934 8.29935 12.4243
8.45511C12.5306 8.58164 12.7493 8.75 13.25 8.75C13.3257 8.75 13.3988 8.76121 13.4676 8.78207C14.1307 8.87646 14.6319
9.17251 14.9743 9.58011C15.3684 10.0493 15.5 10.604 15.5 11C15.5 11.396 15.3684 11.9507 14.9743 12.4199C14.5556 12.9184
13.8993 13.25 13 13.25C12.1651 13.25 11.5352 12.9643 11.1106 12.5152C10.8261 12.2142 10.8395 11.7395 11.1405
11.4549C11.4415 11.1704 11.9162 11.1838 12.2007 11.4848C12.3106 11.601 12.5296 11.75 13 11.75C13.5007 11.75 13.7194
11.5816 13.8257 11.4551C13.9566 11.2993 14 11.104 14 11C14 10.896 13.9566 10.7007 13.8257 10.5449C13.7194 10.4184
13.5007 10.25 13 10.25C12.9243 10.25 12.8512 10.2388 12.7824 10.2179C12.1193 10.1235 11.6181 9.82749 11.2757
9.41989C10.8816 8.95065 10.75 8.396 10.75 8C10.75 7.604 10.8816 7.04935 11.2757 6.58011Z" fill="#231f20"/>
    </g>

    <g id="quote">
        <path fill-rule="evenodd" clip-rule="evenodd" d="M16.9861 9.98212C16.5475 9.98211 16.169 9.9821 15.8557 10.0035C15.5259 10.026 15.196 10.0755 14.8701 10.2105C14.135 10.515 13.551 11.099 13.2465 11.8341C13.1115 12.16 13.062 12.4899 13.0395 12.8197C12.9905 13.5374 13.0181 14.2631 13.0181 14.9821C13.0181 16.639 14.3613 17.9821 16.0181 17.9821H17.0181V18.229C17.0181 19.7668 18.8774 20.537 19.9649 19.4496C20.1938 19.2206 20.4226 18.9914 20.6519 18.7627C21.1326 18.2835 21.5593 17.8582 21.7898 17.3017C22.0202 16.7453 22.0193 16.1429 22.0183 15.4641C22.0169 14.5582 22.0626 13.6399 21.9708 12.7378C21.9207 12.2446 21.8091 11.7593 21.5125 11.3154C21.2936 10.9878 21.0124 10.7066 20.6848 10.4877C20.2409 10.1911 19.7556 10.0796 19.2624 10.0294C18.5081 9.95266 17.7435 9.98212 16.9861 9.98212Z" fill="#323232"/>
        <path fill-rule="evenodd" clip-rule="evenodd" d="M5.97575 4.00556C5.5371 4.00555 5.15861 4.00554 4.84535 4.02691C4.51553 4.04941 4.18562 4.09892 3.85969 4.23392C3.1246 4.5384 2.54058 5.12243 2.2361 5.85751C2.10109 6.18344 2.05159 6.51335 2.02909 6.84318C1.98012 7.56087 2.00774 8.28654 2.00774 9.00556C2.00774 10.6624 3.35088 12.0056 5.00774 12.0056H6.00774V12.2524C6.00774 13.7903 7.86707 14.5604 8.95449 13.473C9.18347 13.244 9.4122 13.0148 9.64153 12.7862C10.1223 12.3069 10.5489 11.8816 10.7794 11.3252C11.0098 10.7688 11.0089 10.1663 11.0079 9.48753C11.0065 8.58163 11.0522 7.66333 10.9605 6.76128C10.9103 6.26804 10.7988 5.78277 10.5021 5.33885C10.2833 5.01128 10.002 4.73003 9.67445 4.51115C9.23053 4.21453 8.74526 4.103 8.25202 4.05283C7.49772 3.97609 6.73317 4.00556 5.97575 4.00556Z" fill="#323232"/>

    </g>

    <g id="in">
        <path fill-rule="evenodd" clip-rule="evenodd" d="M6 2C3.79086 2 2 3.79086 2 6V18C2 20.2091 3.79086 22 6 22H18C20.2091 22 22 20.2091 22 18V6C22 3.79086 20.2091 2 18 2H6ZM4 6C4 4.89543 4.89543 4 6 4H18C19.1046 4 20 4.89543 20 6V18C20 19.1046 19.1046 20 18 20H6C4.89543 20 4 19.1046 4 18V6ZM9 11C9 10.4477 8.55228 10 8 10C7.44772 10 7 10.4477 7 11V17C7 17.5523 7.44772 18 8 18C8.55228 18 9 17.5523 9 17V11ZM9.5 7.5C9.5 8.32843 8.82843 9 8 9C7.17157 9 6.5 8.32843 6.5 7.5C6.5 6.67157 7.17157 6 8 6C8.82843 6 9.5 6.67157 9.5 7.5ZM12 10C12.3395 10 12.6395 10.1692 12.8203 10.4279C13.3329 10.1502 13.9036 10 14.5 10C16.6594 10 18 11.9258 18 13.5714V13.579V13.5865V13.5941V13.6017V13.6093V13.617V13.6246V13.6323V13.64V13.6477V13.6555V13.6632V13.671V13.6788V13.6866V13.6944V13.7022V13.7101V13.718V13.7258V13.7338V13.7417V13.7496V13.7576V13.7655V13.7735V13.7815V13.7896V13.7976V13.8057V13.8137V13.8218V13.8299V13.838V13.8462V13.8543V13.8625V13.8706V13.8788V13.887V13.8953V13.9035V13.9117V13.92V13.9283V13.9365V13.9448V13.9532V13.9615V13.9698V13.9782V13.9866V13.9949V14.0033V14.0117V14.0201V14.0286V14.037V14.0455V14.0539V14.0624V14.0709V14.0794V14.0879V14.0964V14.1049V14.1135V14.122V14.1306V14.1392V14.1478V14.1563V14.165V14.1736V14.1822V14.1908V14.1995V14.2081V14.2168V14.2254V14.2341V14.2428V14.2515V14.2602V14.2689V14.2776V14.2864V14.2951V14.3039V14.3126V14.3214V14.3301V14.3389V14.3477V14.3565V14.3653V14.3741V14.3829V14.3917V14.4005V14.4093V14.4182V14.427V14.4359V14.4447V14.4536V14.4624V14.4713V14.4802V14.4891V14.4979V14.5068V14.5157V14.5246V14.5335V14.5424V14.5513V14.5602V14.5692V14.5781V14.587V14.5959V14.6049V14.6138V14.6227V14.6317V14.6406V14.6496V14.6585V14.6674V14.6764V14.6854V14.6943V14.7033V14.7122V14.7212V14.7302V14.7391V14.7481V14.757V14.766V14.775V14.7839V14.7929V14.8019V14.8108V14.8198V14.8288V14.8378V14.8467V14.8557V14.8647V14.8736V14.8826V14.8916V14.9005V14.9095V14.9184V14.9274V14.9363V14.9453V14.9543V14.9632V14.9722V14.9811V14.99V14.999V15.0079V15.0169V15.0258V15.0347V15.0436V15.0526V15.0615V15.0704V15.0793V15.0882V15.0971V15.106V15.1149V15.1238V15.1327V15.1416V15.1504V15.1593V15.1682V15.177V15.1859V15.1947V15.2036V15.2124V15.2213V15.2301V15.2389V15.2477V15.2565V15.2653V15.2741V15.2829V15.2917V15.3005V15.3092V15.318V15.3267V15.3355V15.3442V15.3529V15.3616V15.3703V15.379V15.3877V15.3964V15.4051V15.4138V15.4224V15.4311V15.4397V15.4483V15.457V15.4656V15.4742V15.4827V15.4913V15.4999V15.5085V15.517V15.5255V15.5341V15.5426V15.5511V15.5596V15.5681V15.5765V15.585V15.5934V15.6019V15.6103V15.6187V15.6271V15.6355V15.6439V15.6522V15.6606V15.6689V15.6772V15.6855V15.6938V15.7021V15.7104V15.7186V15.7269V15.7351V15.7433V15.7515V15.7597V15.7679V15.776V15.7842V15.7923V15.8004V15.8085V15.8166V15.8246V15.8327V15.8407V15.8487V15.8567V15.8647V15.8727V15.8806V15.8885V15.8965V15.9044V15.9122V15.9201V15.928V15.9358V15.9436V15.9514V15.9592V15.9669V15.9747V15.9824V15.9901V15.9978V16.0055V16.0131V16.0208V16.0284V16.036V16.0435V16.0511V16.0586V16.0661V16.0736V16.0811V16.0886V16.096V16.1034V16.1108V16.1182V16.1255V16.1329V16.1402V16.1475V16.1547V16.162V16.1692V16.1764V16.1836V16.1908V16.1979V16.205V16.2121V16.2192V16.2262V16.2332V16.2402V16.2472V16.2542V16.2611V16.268V16.2749V16.2818V16.2886V16.2954V16.3022V16.309V16.3157V16.3224V16.3291V16.3358V16.3425V16.3491V16.3557V16.3622V16.3688V16.3753V16.3818V16.3882V16.3947V16.4011V16.4075V16.4138V16.4202V16.4265V16.4328V16.439V16.4452V16.4514V16.4576V16.4638V16.4699V16.476V16.482V16.4881V16.4941V16.5V16.506V16.5119V16.5178V16.5237V16.5295V16.5353V16.5411V16.5468V16.5525V16.5582V16.5639V16.5695V16.5751V16.5807V16.5862V16.5917V16.5972V16.6026V16.6081V16.6134V16.6188V16.6241V16.6294V16.6347V16.6399V16.6451V16.6503V16.6554V16.6605V16.6656V16.6706V16.6756V16.6806V16.6855V16.6904V16.6953V16.7001V16.7049V16.7097V16.7144V16.7191V16.7238V16.7284V16.733V16.7376V16.7421V16.7466V16.7511V16.7555V16.7599V16.7643V16.7686V16.7729V16.7771V16.7813V16.7855V16.7897V16.7938V16.7978V16.8019V16.8059V16.8098V16.8138V16.8177V16.8215V16.8253V16.8291V16.8328V16.8365V16.8402V16.8438V16.8474V16.851V16.8545V16.858V16.8614V16.8648V16.8682V16.8715V16.8748V16.878V16.8812V16.8844V16.8875V16.8906V16.8936V16.8966V16.8996V16.9025V16.9054V16.9083V16.9111V16.9138V16.9165V16.9192V16.9219V16.9245V16.927V16.9295V16.932V16.9344V16.9368V16.9392V16.9415V16.9438V16.946V16.9481V16.9503V16.9524V16.9544V16.9564V16.9584V16.9603V16.9622V16.964V16.9658V16.9676V16.9693V16.9709V16.9725V16.9741V16.9756V16.9771V16.9785V16.9799V16.9813V16.9826V16.9838V16.985V16.9862V16.9873V16.9884V16.9894V16.9904V16.9913V16.9922V16.993V16.9938V16.9946V16.9953V16.9959V16.9965V16.9971V16.9976V16.998V16.9984V16.9988V16.9991V16.9994V16.9996V16.9998V16.9999V17C18 17 18 17 18 17C18 17.5523 17.5523 18 17 18C16.4477 18 16 17.5523 16 17C16 17 16 17 16 17V16.9999V16.9998V16.9996V16.9994V16.9991V16.9988V16.9984V16.998V16.9976V16.9971V16.9965V16.9959V16.9953V16.9946V16.9938V16.993V16.9922V16.9913V16.9904V16.9894V16.9884V16.9873V16.9862V16.985V16.9838V16.9826V16.9813V16.9799V16.9785V16.9771V16.9756V16.9741V16.9725V16.9709V16.9693V16.9676V16.9658V16.964V16.9622V16.9603V16.9584V16.9564V16.9544V16.9524V16.9503V16.9481V16.946V16.9438V16.9415V16.9392V16.9368V16.9344V16.932V16.9295V16.927V16.9245V16.9219V16.9192V16.9165V16.9138V16.9111V16.9083V16.9054V16.9025V16.8996V16.8966V16.8936V16.8906V16.8875V16.8844V16.8812V16.878V16.8748V16.8715V16.8682V16.8648V16.8614V16.858V16.8545V16.851V16.8474V16.8438V16.8402V16.8365V16.8328V16.8291V16.8253V16.8215V16.8177V16.8138V16.8098V16.8059V16.8019V16.7978V16.7938V16.7897V16.7855V16.7813V16.7771V16.7729V16.7686V16.7643V16.7599V16.7555V16.7511V16.7466V16.7421V16.7376V16.733V16.7284V16.7238V16.7191V16.7144V16.7097V16.7049V16.7001V16.6953V16.6904V16.6855V16.6806V16.6756V16.6706V16.6656V16.6605V16.6554V16.6503V16.6451V16.6399V16.6347V16.6294V16.6241V16.6188V16.6134V16.6081V16.6026V16.5972V16.5917V16.5862V16.5807V16.5751V16.5695V16.5639V16.5582V16.5525V16.5468V16.5411V16.5353V16.5295V16.5237V16.5178V16.5119V16.506V16.5V16.4941V16.4881V16.482V16.476V16.4699V16.4638V16.4576V16.4514V16.4452V16.439V16.4328V16.4265V16.4202V16.4138V16.4075V16.4011V16.3947V16.3882V16.3818V16.3753V16.3688V16.3622V16.3557V16.3491V16.3425V16.3358V16.3291V16.3224V16.3157V16.309V16.3022V16.2954V16.2886V16.2818V16.2749V16.268V16.2611V16.2542V16.2472V16.2402V16.2332V16.2262V16.2192V16.2121V16.205V16.1979V16.1908V16.1836V16.1764V16.1692V16.162V16.1547V16.1475V16.1402V16.1329V16.1255V16.1182V16.1108V16.1034V16.096V16.0886V16.0811V16.0736V16.0661V16.0586V16.0511V16.0435V16.036V16.0284V16.0208V16.0131V16.0055V15.9978V15.9901V15.9824V15.9747V15.9669V15.9592V15.9514V15.9436V15.9358V15.928V15.9201V15.9122V15.9044V15.8965V15.8885V15.8806V15.8727V15.8647V15.8567V15.8487V15.8407V15.8327V15.8246V15.8166V15.8085V15.8004V15.7923V15.7842V15.776V15.7679V15.7597V15.7515V15.7433V15.7351V15.7269V15.7186V15.7104V15.7021V15.6938V15.6855V15.6772V15.6689V15.6606V15.6522V15.6439V15.6355V15.6271V15.6187V15.6103V15.6019V15.5934V15.585V15.5765V15.5681V15.5596V15.5511V15.5426V15.5341V15.5255V15.517V15.5085V15.4999V15.4913V15.4827V15.4742V15.4656V15.457V15.4483V15.4397V15.4311V15.4224V15.4138V15.4051V15.3964V15.3877V15.379V15.3703V15.3616V15.3529V15.3442V15.3355V15.3267V15.318V15.3092V15.3005V15.2917V15.2829V15.2741V15.2653V15.2565V15.2477V15.2389V15.2301V15.2213V15.2124V15.2036V15.1947V15.1859V15.177V15.1682V15.1593V15.1504V15.1416V15.1327V15.1238V15.1149V15.106V15.0971V15.0882V15.0793V15.0704V15.0615V15.0526V15.0436V15.0347V15.0258V15.0169V15.0079V14.999V14.99V14.9811V14.9722V14.9632V14.9543V14.9453V14.9363V14.9274V14.9184V14.9095V14.9005V14.8916V14.8826V14.8736V14.8647V14.8557V14.8467V14.8378V14.8288V14.8198V14.8108V14.8019V14.7929V14.7839V14.775V14.766V14.757V14.7481V14.7391V14.7302V14.7212V14.7122V14.7033V14.6943V14.6854V14.6764V14.6674V14.6585V14.6496V14.6406V14.6317V14.6227V14.6138V14.6049V14.5959V14.587V14.5781V14.5692V14.5602V14.5513V14.5424V14.5335V14.5246V14.5157V14.5068V14.4979V14.4891V14.4802V14.4713V14.4624V14.4536V14.4447V14.4359V14.427V14.4182V14.4093V14.4005V14.3917V14.3829V14.3741V14.3653V14.3565V14.3477V14.3389V14.3301V14.3214V14.3126V14.3039V14.2951V14.2864V14.2776V14.2689V14.2602V14.2515V14.2428V14.2341V14.2254V14.2168V14.2081V14.1995V14.1908V14.1822V14.1736V14.165V14.1563V14.1478V14.1392V14.1306V14.122V14.1135V14.1049V14.0964V14.0879V14.0794V14.0709V14.0624V14.0539V14.0455V14.037V14.0286V14.0201V14.0117V14.0033V13.9949V13.9866V13.9782V13.9698V13.9615V13.9532V13.9448V13.9365V13.9283V13.92V13.9117V13.9035V13.8953V13.887V13.8788V13.8706V13.8625V13.8543V13.8462V13.838V13.8299V13.8218V13.8137V13.8057V13.7976V13.7896V13.7815V13.7735V13.7655V13.7576V13.7496V13.7417V13.7338V13.7258V13.718V13.7101V13.7022V13.6944V13.6866V13.6788V13.671V13.6632V13.6555V13.6477V13.64V13.6323V13.6246V13.617V13.6093V13.6017V13.5941V13.5865V13.579V13.5714C16 12.8032 15.3406 12 14.5 12C13.9759 12 13.3974 12.2849 13 12.9631V12.9658V12.9761V12.9864V12.9967V13.0071V13.0174V13.0278V13.0382V13.0487V13.0591V13.0695V13.08V13.0905V13.101V13.1115V13.122V13.1326V13.1432V13.1537V13.1643V13.1749V13.1855V13.1962V13.2068V13.2175V13.2282V13.2388V13.2496V13.2603V13.271V13.2817V13.2925V13.3033V13.314V13.3248V13.3356V13.3464V13.3573V13.3681V13.379V13.3898V13.4007V13.4116V13.4225V13.4334V13.4443V13.4552V13.4662V13.4771V13.4881V13.499V13.51V13.521V13.532V13.543V13.554V13.565V13.5761V13.5871V13.5981V13.6092V13.6203V13.6313V13.6424V13.6535V13.6646V13.6757V13.6868V13.6979V13.709V13.7202V13.7313V13.7424V13.7536V13.7647V13.7759V13.7871V13.7982V13.8094V13.8206V13.8318V13.8429V13.8541V13.8653V13.8765V13.8878V13.899V13.9102V13.9214V13.9326V13.9438V13.9551V13.9663V13.9775V13.9888V14V14.0113V14.0225V14.0338V14.045V14.0562V14.0675V14.0788V14.09V14.1013V14.1125V14.1238V14.135V14.1463V14.1576V14.1688V14.1801V14.1913V14.2026V14.2139V14.2251V14.2364V14.2476V14.2589V14.2701V14.2814V14.2926V14.3039V14.3151V14.3264V14.3376V14.3489V14.3601V14.3714V14.3826V14.3938V14.405V14.4163V14.4275V14.4387V14.4499V14.4611V14.4723V14.4835V14.4947V14.5059V14.5171V14.5283V14.5395V14.5506V14.5618V14.573V14.5841V14.5953V14.6064V14.6176V14.6287V14.6398V14.6509V14.662V14.6732V14.6843V14.6953V14.7064V14.7175V14.7286V14.7396V14.7507V14.7617V14.7728V14.7838V14.7948V14.8058V14.8168V14.8278V14.8388V14.8498V14.8607V14.8717V14.8826V14.8936V14.9045V14.9154V14.9263V14.9372V14.9481V14.9589V14.9698V14.9806V14.9915V15.0023V15.0131V15.0239V15.0347V15.0455V15.0562V15.067V15.0777V15.0884V15.0991V15.1098V15.1205V15.1312V15.1419V15.1525V15.1631V15.1737V15.1843V15.1949V15.2055V15.2161V15.2266V15.2371V15.2476V15.2581V15.2686V15.2791V15.2895V15.2999V15.3104V15.3208V15.3311V15.3415V15.3519V15.3622V15.3725V15.3828V15.3931V15.4033V15.4136V15.4238V15.434V15.4442V15.4544V15.4645V15.4747V15.4848V15.4949V15.5049V15.515V15.525V15.535V15.545V15.555V15.565V15.5749V15.5848V15.5947V15.6046V15.6144V15.6243V15.6341V15.6439V15.6536V15.6634V15.6731V15.6828V15.6925V15.7021V15.7118V15.7214V15.731V15.7405V15.7501V15.7596V15.7691V15.7786V15.788V15.7974V15.8068V15.8162V15.8256V15.8349V15.8442V15.8534V15.8627V15.8719V15.8811V15.8903V15.8994V15.9086V15.9177V15.9267V15.9358V15.9448V15.9538V15.9627V15.9717V15.9806V15.9895V15.9983V16.0071V16.0159V16.0247V16.0334V16.0421V16.0508V16.0595V16.0681V16.0767V16.0853V16.0938V16.1023V16.1108V16.1193V16.1277V16.1361V16.1444V16.1527V16.161V16.1693V16.1776V16.1858V16.1939V16.2021V16.2102V16.2183V16.2263V16.2343V16.2423V16.2503V16.2582V16.2661V16.2739V16.2817V16.2895V16.2973V16.305V16.3127V16.3203V16.328V16.3356V16.3431V16.3506V16.3581V16.3656V16.373V16.3803V16.3877V16.395V16.4023V16.4095V16.4167V16.4239V16.431V16.4381V16.4451V16.4522V16.4591V16.4661V16.473V16.4799V16.4867V16.4935V16.5002V16.507V16.5137V16.5203V16.5269V16.5335V16.54V16.5465V16.5529V16.5593V16.5657V16.5721V16.5783V16.5846V16.5908V16.597V16.6031V16.6092V16.6153V16.6213V16.6272V16.6332V16.6391V16.6449V16.6507V16.6565V16.6622V16.6679V16.6735V16.6791V16.6847V16.6902V16.6956V16.7011V16.7064V16.7118V16.7171V16.7223V16.7275V16.7327V16.7378V16.7429V16.7479V16.7529V16.7578V16.7627V16.7676V16.7724V16.7772V16.7819V16.7865V16.7912V16.7957V16.8003V16.8048V16.8092V16.8136V16.8179V16.8222V16.8265V16.8307V16.8348V16.839V16.843V16.847V16.851V16.8549V16.8588V16.8626V16.8664V16.8701V16.8738V16.8774V16.881V16.8845V16.888V16.8914V16.8948V16.8981V16.9014V16.9046V16.9078V16.9109V16.914V16.917V16.92V16.9229V16.9258V16.9286V16.9313V16.9341V16.9367V16.9393V16.9419V16.9444V16.9468V16.9492V16.9516V16.9539V16.9561V16.9583V16.9604V16.9625V16.9645V16.9665V16.9684V16.9703V16.9721V16.9738V16.9755V16.9771V16.9787V16.9803V16.9817V16.9831V16.9845V16.9858V16.9871V16.9883V16.9894V16.9905V16.9915V16.9925V16.9934V16.9942V16.995V16.9957V16.9964V16.997V16.9976V16.9981V16.9985V16.9989V16.9993V16.9995V16.9997V16.9999V17V17C13 17.5523 12.5523 18 12 18C11.4477 18 11 17.5523 11 17V17V16.9999V16.9997V16.9995V16.9993V16.9989V16.9985V16.9981V16.9976V16.997V16.9964V16.9957V16.995V16.9942V16.9934V16.9925V16.9915V16.9905V16.9894V16.9883V16.9871V16.9858V16.9845V16.9831V16.9817V16.9803V16.9787V16.9771V16.9755V16.9738V16.9721V16.9703V16.9684V16.9665V16.9645V16.9625V16.9604V16.9583V16.9561V16.9539V16.9516V16.9492V16.9468V16.9444V16.9419V16.9393V16.9367V16.9341V16.9313V16.9286V16.9258V16.9229V16.92V16.917V16.914V16.9109V16.9078V16.9046V16.9014V16.8981V16.8948V16.8914V16.888V16.8845V16.881V16.8774V16.8738V16.8701V16.8664V16.8626V16.8588V16.8549V16.851V16.847V16.843V16.839V16.8348V16.8307V16.8265V16.8222V16.8179V16.8136V16.8092V16.8048V16.8003V16.7957V16.7912V16.7865V16.7819V16.7772V16.7724V16.7676V16.7627V16.7578V16.7529V16.7479V16.7429V16.7378V16.7327V16.7275V16.7223V16.7171V16.7118V16.7064V16.7011V16.6956V16.6902V16.6847V16.6791V16.6735V16.6679V16.6622V16.6565V16.6507V16.6449V16.6391V16.6332V16.6272V16.6213V16.6153V16.6092V16.6031V16.597V16.5908V16.5846V16.5783V16.5721V16.5657V16.5593V16.5529V16.5465V16.54V16.5335V16.5269V16.5203V16.5137V16.507V16.5002V16.4935V16.4867V16.4799V16.473V16.4661V16.4591V16.4522V16.4451V16.4381V16.431V16.4239V16.4167V16.4095V16.4023V16.395V16.3877V16.3803V16.373V16.3656V16.3581V16.3506V16.3431V16.3356V16.328V16.3203V16.3127V16.305V16.2973V16.2895V16.2817V16.2739V16.2661V16.2582V16.2503V16.2423V16.2343V16.2263V16.2183V16.2102V16.2021V16.1939V16.1858V16.1776V16.1693V16.161V16.1527V16.1444V16.1361V16.1277V16.1193V16.1108V16.1023V16.0938V16.0853V16.0767V16.0681V16.0595V16.0508V16.0421V16.0334V16.0247V16.0159V16.0071V15.9983V15.9895V15.9806V15.9717V15.9627V15.9538V15.9448V15.9358V15.9267V15.9177V15.9086V15.8994V15.8903V15.8811V15.8719V15.8627V15.8534V15.8442V15.8349V15.8256V15.8162V15.8068V15.7974V15.788V15.7786V15.7691V15.7596V15.7501V15.7405V15.731V15.7214V15.7118V15.7021V15.6925V15.6828V15.6731V15.6634V15.6536V15.6439V15.6341V15.6243V15.6144V15.6046V15.5947V15.5848V15.5749V15.565V15.555V15.545V15.535V15.525V15.515V15.5049V15.4949V15.4848V15.4747V15.4645V15.4544V15.4442V15.434V15.4238V15.4136V15.4033V15.3931V15.3828V15.3725V15.3622V15.3519V15.3415V15.3311V15.3208V15.3104V15.2999V15.2895V15.2791V15.2686V15.2581V15.2476V15.2371V15.2266V15.2161V15.2055V15.1949V15.1843V15.1737V15.1631V15.1525V15.1419V15.1312V15.1205V15.1098V15.0991V15.0884V15.0777V15.067V15.0562V15.0455V15.0347V15.0239V15.0131V15.0023V14.9915V14.9806V14.9698V14.9589V14.9481V14.9372V14.9263V14.9154V14.9045V14.8936V14.8826V14.8717V14.8607V14.8498V14.8388V14.8278V14.8168V14.8058V14.7948V14.7838V14.7728V14.7617V14.7507V14.7396V14.7286V14.7175V14.7064V14.6953V14.6843V14.6732V14.662V14.6509V14.6398V14.6287V14.6176V14.6064V14.5953V14.5841V14.573V14.5618V14.5506V14.5395V14.5283V14.5171V14.5059V14.4947V14.4835V14.4723V14.4611V14.4499V14.4387V14.4275V14.4163V14.405V14.3938V14.3826V14.3714V14.3601V14.3489V14.3376V14.3264V14.3151V14.3039V14.2926V14.2814V14.2701V14.2589V14.2476V14.2364V14.2251V14.2139V14.2026V14.1913V14.1801V14.1688V14.1576V14.1463V14.135V14.1238V14.1125V14.1013V14.09V14.0788V14.0675V14.0562V14.045V14.0338V14.0225V14.0113V14V13.9888V13.9775V13.9663V13.9551V13.9438V13.9326V13.9214V13.9102V13.899V13.8878V13.8765V13.8653V13.8541V13.8429V13.8318V13.8206V13.8094V13.7982V13.7871V13.7759V13.7647V13.7536V13.7424V13.7313V13.7202V13.709V13.6979V13.6868V13.6757V13.6646V13.6535V13.6424V13.6313V13.6203V13.6092V13.5981V13.5871V13.5761V13.565V13.554V13.543V13.532V13.521V13.51V13.499V13.4881V13.4771V13.4662V13.4552V13.4443V13.4334V13.4225V13.4116V13.4007V13.3898V13.379V13.3681V13.3573V13.3464V13.3356V13.3248V13.314V13.3033V13.2925V13.2817V13.271V13.2603V13.2496V13.2388V13.2282V13.2175V13.2068V13.1962V13.1855V13.1749V13.1643V13.1537V13.1432V13.1326V13.122V13.1115V13.101V13.0905V13.08V13.0695V13.0591V13.0487V13.0382V13.0278V13.0174V13.0071V12.9967V12.9864V12.9761V12.9658V12.9555V12.9452V12.9349V12.9247V12.9145V12.9043V12.8941V12.884V12.8738V12.8637V12.8536V12.8435V12.8335V12.8234V12.8134V12.8034V12.7934V12.7834V12.7735V12.7636V12.7537V12.7438V12.7339V12.7241V12.7143V12.7104V12.7064V12.7025V12.6985V12.6946V12.6906V12.6866V12.6826V12.6786V12.6746V12.6706V12.6666V12.6626V12.6586V12.6545V12.6505V12.6464V12.6423V12.6383V12.6342V12.6301V12.626V12.6219V12.6178V12.6137V12.6096V12.6055V12.6013V12.5972V12.593V12.5889V12.5847V12.5805V12.5764V12.5722V12.568V12.5638V12.5596V12.5554V12.5512V12.547V12.5427V12.5385V12.5343V12.53V12.5258V12.5215V12.5173V12.513V12.5087V12.5045V12.5002V12.4959V12.4916V12.4873V12.483V12.4787V12.4744V12.4701V12.4657V12.4614V12.4571V12.4528V12.4484V12.4441V12.4397V12.4354V12.431V12.4266V12.4223V12.4179V12.4135V12.4092V12.4048V12.4004V12.396V12.3916V12.3872V12.3828V12.3784V12.374V12.3696V12.3652V12.3607V12.3563V12.3519V12.3475V12.343V12.3386V12.3342V12.3297V12.3253V12.3208V12.3164V12.3119V12.3075V12.303V12.2986V12.2941V12.2896V12.2852V12.2807V12.2762V12.2718V12.2673V12.2628V12.2583V12.2539V12.2494V12.2449V12.2404V12.2359V12.2314V12.227V12.2225V12.218V12.2135V12.209V12.2045V12.2V12.1955V12.191V12.1865V12.182V12.1775V12.173V12.1685V12.164V12.1595V12.155V12.1505V12.146V12.1415V12.137V12.1325V12.128V12.1235V12.119V12.1145V12.11V12.1055V12.1009V12.0964V12.0919V12.0874V12.0829V12.0784V12.0739V12.0694V12.0649V12.0604V12.056V12.0515V12.047V12.0425V12.038V12.0335V12.029V12.0245V12.02V12.0155V12.0111V12.0066V12.0021V11.9976V11.9932V11.9887V11.9842V11.9797V11.9753V11.9708V11.9663V11.9619V11.9574V11.953V11.9485V11.9441V11.9396V11.9352V11.9307V11.9263V11.9219V11.9174V11.913V11.9086V11.9041V11.8997V11.8953V11.8909V11.8865V11.8821V11.8777V11.8733V11.8689V11.8645V11.8601V11.8557V11.8513V11.847V11.8426V11.8382V11.8338V11.8295V11.8251V11.8208V11.8164V11.8121V11.8077V11.8034V11.7991V11.7948V11.7904V11.7861V11.7818V11.7775V11.7732V11.7689V11.7646V11.7603V11.7561V11.7518V11.7475V11.7433V11.739V11.7347V11.7305V11.7263V11.722V11.7178V11.7136V11.7094V11.7052V11.7009V11.6967V11.6926V11.6884V11.6842V11.68V11.6759V11.6717V11.6675V11.6634V11.6593V11.6551V11.651V11.6469V11.6428V11.6387V11.6346V11.6305V11.6264V11.6223V11.6183V11.6142V11.6101V11.6061V11.6021V11.598V11.594V11.59V11.586V11.582V11.578V11.574V11.57V11.5661V11.5621V11.5582V11.5542V11.5503V11.5464V11.5424V11.5385V11.5346V11.5308V11.5269V11.523V11.5191V11.5153V11.5114V11.5076V11.5038V11.5V11.4962V11.4924V11.4886V11.4848V11.481V11.4773V11.4735V11.4698V11.4661V11.4623V11.4586V11.4549V11.4512V11.4476V11.4439V11.4402V11.4366V11.4329V11.4293V11.4257V11.4221V11.4185V11.4149V11.4113V11.4078V11.4042V11.4007V11.3971V11.3936V11.3901V11.3866V11.3831V11.3797V11.3762V11.3728V11.3693V11.3659V11.3625V11.3591V11.3557V11.3523V11.3489V11.3456V11.3422V11.3389V11.3356V11.3323V11.329V11.3257V11.3224V11.3192V11.3159V11.3127V11.3095V11.3063V11.3031V11.2999V11.2967V11.2936V11.2904V11.2873V11.2842V11.2811V11.278V11.2749V11.2719V11.2688V11.2658V11.2628V11.2598V11.2568V11.2538V11.2508V11.2479V11.2449V11.242V11.2391V11.2362V11.2333V11.2305V11.2276V11.2248V11.2219V11.2191V11.2163V11.2136V11.2108V11.2081V11.2053V11.2026V11.1999V11.1972V11.1945V11.1919V11.1892V11.1866V11.184V11.1814V11.1788V11.1763V11.1737V11.1712V11.1687V11.1662V11.1637V11.1612V11.1588V11.1563V11.1539V11.1515V11.1491V11.1467V11.1444V11.142V11.1397V11.1374V11.1351V11.1329V11.1306V11.1284V11.1261V11.1239V11.1217V11.1196V11.1174V11.1153V11.1132V11.1111V11.109V11.1069V11.1049V11.1028V11.1008V11.0988V11.0969V11.0949V11.093V11.091V11.0891V11.0873V11.0854V11.0835V11.0817V11.0799V11.0781V11.0763V11.0746V11.0728V11.0711V11.0694V11.0677V11.0661V11.0644V11.0628V11.0612V11.0596V11.058V11.0565V11.055V11.0535V11.052V11.0505V11.049V11.0476V11.0462V11.0448V11.0434V11.0421V11.0408V11.0394V11.0382V11.0369V11.0356V11.0344V11.0332V11.032V11.0308V11.0297V11.0286V11.0275V11.0264V11.0253V11.0243V11.0232V11.0222V11.0213V11.0203V11.0194V11.0185V11.0176V11.0167V11.0158V11.015V11.0142V11.0134V11.0126V11.0119V11.0112V11.0105V11.0098V11.0091V11.0085V11.0079V11.0073V11.0067V11.0062V11.0057V11.0052V11.0047V11.0042V11.0038V11.0034V11.003V11.0027V11.0023V11.002V11.0017V11.0014V11.0012V11.001V11.0008V11.0006V11.0004V11.0003V11.0002V11.0001V11V11C11 10.4477 11.4477 10 12 10Z" fill="#000000"/>
    </g>

    <g id="tg">
        <path fill-rule="evenodd" clip-rule="evenodd" d="M24 12C24 18.6274 18.6274 24 12 24C5.37258 24 0 18.6274 0 12C0 5.37258 5.37258 0 12 0C18.6274 0 24 5.37258 24 12ZM12.43 8.85893C11.2629 9.3444 8.93015 10.3492 5.43191 11.8733C4.86385 12.0992 4.56628 12.3202 4.53919 12.5363C4.4934 12.9015 4.95073 13.0453 5.57349 13.2411C5.6582 13.2678 5.74598 13.2954 5.83596 13.3246C6.44866 13.5238 7.27284 13.7568 7.70131 13.766C8.08996 13.7744 8.52375 13.6142 9.00266 13.2853C12.2712 11.079 13.9584 9.96381 14.0643 9.93977C14.1391 9.92281 14.2426 9.90148 14.3128 9.96385C14.3829 10.0262 14.3761 10.1443 14.3686 10.176C14.3233 10.3691 12.5281 12.0381 11.5991 12.9018C11.3095 13.171 11.1041 13.362 11.0621 13.4056C10.968 13.5034 10.8721 13.5958 10.78 13.6846C10.2108 14.2333 9.78393 14.6448 10.8036 15.3168C11.2937 15.6397 11.6858 15.9067 12.077 16.1731C12.5042 16.4641 12.9303 16.7543 13.4816 17.1157C13.6221 17.2078 13.7562 17.3034 13.8869 17.3965C14.3841 17.751 14.8308 18.0694 15.3826 18.0186C15.7033 17.9891 16.0345 17.6876 16.2027 16.7884C16.6002 14.6632 17.3816 10.0585 17.5622 8.16098C17.5781 7.99473 17.5582 7.78197 17.5422 7.68858C17.5262 7.59518 17.4928 7.46211 17.3714 7.3636C17.2276 7.24694 17.0057 7.22234 16.9064 7.22408C16.455 7.23204 15.7626 7.47282 12.43 8.85893Z" fill="#000000"/>
    </g>
</svg>