<svg xmlns="http://www.w3.org/2000/svg" width="24" height="24" fill="none" viewBox="0 0 24 24">
    <g id="logo">
        <path class="cls-1" d="M3.34,0h116.2a3.35,3.35,0,0,1,3.34,3.34v77a3.35,3.35,0,0,1-3.34,3.34H3.34A3.35,3.35,0,0,1,0,80.32v-77A3.35,3.35,0,0,1,3.34,0ZM13.49,63.91a2.59,2.59,0,1,1,0-5.17H52.94a2.59,2.59,0,1,1,0,5.17Zm.15-13.28a2.59,2.59,0,0,1,0-5.17H42.4a2.59,2.59,0,0,1,0,5.17ZM13.49,37.4a2.59,2.59,0,1,1,0-5.17H33.85a2.59,2.59,0,0,1,0,5.17Zm0-13.26a2.59,2.59,0,1,1,0-5.17H25.3a2.59,2.59,0,0,1,0,5.17Zm97,26.19v6.44l-13.23,7.5v-7.5l8.52-3.24-8.52-3.2v-7.5l13.23,7.5Zm-22.92,16H82l7-27.11h5.63l-7,27.11Zm-9.41-16-8.53,3.2,8.53,3.24v7.5L65,56.77V50.33l13.24-7.5v7.5Zm5.67-38.68v3.67A1.83,1.83,0,0,1,82,17.15H79a14.43,14.43,0,0,1-1.6,3.5l2,2a1.83,1.83,0,0,1,0,2.58l-2.71,2.71a1.83,1.83,0,0,1-2.58,0l-2.18-2.18a14.43,14.43,0,0,1-3.6,1.35v2.82a1.84,1.84,0,0,1-1.83,1.83H62.63a1.84,1.84,0,0,1-1.83-1.83V26.85a14.2,14.2,0,0,1-3.5-1.59l-2,2a1.82,1.82,0,0,1-2.59,0L50,24.55A1.84,1.84,0,0,1,50,22l2.18-2.17a14.5,14.5,0,0,1-1.35-3.61H48a1.83,1.83,0,0,1-1.83-1.83v-2.7H3.09V70.84a3,3,0,0,0,3,3H116.85a3,3,0,0,0,3-3V11.65Zm-11.42,0H57.62a7.71,7.71,0,0,0-.11,1.28,7.52,7.52,0,0,0,15,0,7.71,7.71,0,0,0-.1-1.28Zm41.79-6.73a2,2,0,1,1-2,2,2,2,0,0,1,2-2Zm-13.44,0a2,2,0,1,1-2,2,2,2,0,0,1,2-2Zm6.72,0a2,2,0,1,1-2,2,2,2,0,0,1,2-2ZM46.29,88.27h30.3c.08,5.24,2.24,9.94,8.09,13.63H38.2c4.71-3.41,8.11-7.54,8.09-13.63Z"
              fill="#231f20"/>
    </g>

    <g id="html">
        <path d="m3 2 1.578 17.824L12 22l7.467-2.175L21 2H3Zm14.049 6.048H9.075l.172
    2.016h7.697l-.626 6.565-4.246 1.381-4.281-1.455-.288-2.932h2.024l.16 1.411 2.4.815
    2.346-.763.297-3.005H7.416l-.562-6.05h10.412l-.217 2.017Z" fill="#231f20"/>
    </g>

    <g id="css">
        <path d="m3 2 1.578 17.834L12 22l7.468-2.165L21 2H3Zm13.3 14.722-4.293 1.204H12l-4.297-1.204-.297-3.167h2.108l.15
    1.526 2.335.639 2.34-.64.245-3.05h-7.27l-.187-2.006h7.64l.174-2.006H6.924l-.176-2.006h10.506l-.954 10.71Z" fill="#231f20"/>
    </g>

    <g id="react">
        <path d="M45.9,24c0-2.8-3-5.4-8-7.2l-.9-.3v-.4c1.1-5.5.3-9.6-2.2-11.1s-6.2-.1-10.2,3.4L24,9l-.2-.2h-.2C19.5,5,15.5,3.7,13,5.1s-3.2,5.3-2.2,10.4a4.4,4.4,0,0,1,.2,1l-1.1.4C5,18.6,2.1,21.2,2.1,24s3.2,5.6,8.2,7.4l.7.2a3.6,3.6,0,0,0-.2,1.1c-1,5-.1,8.8,2.2,10.2s6.5.1,10.5-3.4l.6-.5.8.8c2.8,2.4,5.6,3.7,7.8,3.7a4,4,0,0,0,2.2-.6c2.5-1.4,3.4-5.5,2.3-10.7V32a4.3,4.3,0,0,1-.1-.5h.3C42.7,29.6,45.9,26.9,45.9,24ZM43,24c0,1.2-2.2,3.3-6.5,4.7h-.2A36.7,36.7,0,0,0,34.4,24c.7-1.6,1.3-3.2,1.8-4.7l.8.2C41,20.9,43,22.8,43,24ZM26.8,37.6,26,37a43.1,43.1,0,0,0,3.2-4l5.1-.8c.1.2.1.4.2.5a17.5,17.5,0,0,1,.2,5.5h0a4.1,4.1,0,0,1-1.2,2.3C32.5,41.1,29.8,40.3,26.8,37.6Zm-1.3-4.4L24.1,35l-1.6-1.8Zm-13.7-14A31.9,31.9,0,0,0,13.7,24a33,33,0,0,0-1.9,4.9l-.6-.2a14.4,14.4,0,0,1-4.8-2.6A3.1,3.1,0,0,1,5,24c0-1.2,2-3.1,5.8-4.4Zm10.7-4.4L24,13.1l1.5,1.7h-3Zm11-7.3c1.1.6,1.7,3.6.8,8a.4.4,0,0,1-.1.3l-5-.8A43.1,43.1,0,0,0,26,11l.6-.5C29.8,7.7,32.4,6.9,33.5,7.5ZM16.8,18.1,16,19.4l-.7,1.3c-.3-.7-.5-1.4-.8-2.2ZM14.5,29.5c.3-.7.5-1.4.8-2.2l.7,1.3.8,1.3ZM31.2,24a33.7,33.7,0,0,1-1.7,3.2c-.6,1.1-1.3,2.1-1.9,3.1H20.4c-.7-1.1-1.4-2.1-1.9-3.1A31,31,0,0,1,16.8,24a24,24,0,0,1,1.7-3.2,30.5,30.5,0,0,1,1.9-3,43.3,43.3,0,0,1,7.2,0c.7,1,1.3,2,1.9,3A24,24,0,0,1,31.2,24Zm.8-4.6-.8-1.3,2.3.5a18,18,0,0,1-.8,2.1Zm-.8,10.5.8-1.3.7-1.4.9,2.3Zm-9.3-19H22l-3.2,4-5,.8c-.1-.3-.1-.5-.2-.8-.8-4.1-.2-6.9.8-7.4h0a1.3,1.3,0,0,1,.9-.2c1.4,0,3.8,1,6.5,3.4ZM13.6,33.2a2.9,2.9,0,0,1,.2-.9l5.1.7a33,33,0,0,0,3.2,4l-.2.2-.2.2A14.3,14.3,0,0,1,17,40.3a3.2,3.2,0,0,1-2.5.2C13.4,39.9,12.8,37.2,13.6,33.2Z"
              fill="#231f20"/>
        <path d="M24,19.6A4.4,4.4,0,1,0,28.3,24,4.4,4.4,0,0,0,24,19.6Z" fill="#231f20"/>
    </g>

    <g id="styled">
        <path d="M16.214 6.762l-.075.391c-.116.741-.074.953.244 1.228l.307.254-.318 1.418c-.19.846-.423 1.555-.571 1.788-.127.201-.275.497-.307.656-.053.19-.233.381-.508.55-.243.138-.72.508-1.058.805-.27.243-.456.392-.557.456l-.33.261c-.106.17-.166.307-.189.411-.023.107-.01.178.024.23.033.05.09.085.168.107a.954.954 0 00.282.023 3 3 0 00.632-.112c.07-.019.125-.037.173-.053.074-.091.245-.263.548-.562.804-.793 1.111-1.227.794-1.11-.117.042-.064-.064.137-.276.424-.413.667-1.037 1.175-2.994.402-1.545.402-1.567.698-1.567.139 0 .532.024.532.024V6.762h-.902zm3.839 3.165c-.064 0-.17.096-.233.202-.116.19.021.306 1.767 1.396 1.037.657 1.873 1.217 1.852 1.26-.021.031-.868.582-1.883 1.217-1.842 1.142-1.852 1.153-1.683 1.386.212.275 0 .37 2.391-1.122L24 13.155v-.836l-1.937-1.196c-1.047-.656-1.957-1.185-2.01-1.196zm-16.085.117c-.053 0-.963.54-2.01 1.185L0 12.425v.836l1.947 1.217c1.08.666 1.99 1.217 2.032 1.217.042 0 .127-.096.212-.212.127-.201.02-.286-1.768-1.418C.72 12.996.54 12.848.71 12.732c.106-.074.91-.572 1.778-1.111 1.979-1.217 1.873-1.133 1.714-1.387-.063-.105-.17-.2-.233-.19zm8.684.023c-.292-.002-.92.443-2.8 1.978-.081.193-.088.326-.051.412.024.059.068.1.129.13.06.03.138.048.224.055.171.015.373-.012.536-.044l.11-.025a.386.386 0 01.144-.118c.116-.064.603-.508 1.09-.984.857-.868 1.058-1.26.709-1.387a.24.24 0 00-.09-.017zm2.196.603c-.257.007-.72.305-1.513.938-.398.323-.65.497-.785.533l-.524.414c-.197.36-.226.583-.174.706a.25.25 0 00.138.134.644.644 0 00.24.045 2.18 2.18 0 00.58-.085 3.466 3.466 0 00.291-.092l.029-.012.053-.028c.1-.129.33-.372.618-.652.91-.878 1.375-1.502 1.28-1.735-.043-.113-.117-.17-.233-.166zm-2.424 1.08c-.074.008-.24.136-.539.398-.432.382-.903.602-1.066.504a3.97 3.97 0 01-.114.024c-.166.033-.373.06-.558.045a.708.708 0 01-.252-.063.337.337 0 01-.168-.17c-.037-.09-.037-.202.005-.345l-.65.534-1.471 1.217V15.867l4.82-3.797a.41.41 0 01.016-.123c.037-.134.035-.202-.023-.196zm2.074.639c-.073 0-.195.103-.39.31-.265.283-.682.557-.903.613l-.034.018a2.191 2.191 0 01-.11.042c-.06.02-.138.044-.228.068-.18.049-.404.094-.604.089a.732.732 0 01-.275-.054.344.344 0 01-.184-.18c-.058-.139-.035-.334.092-.611L7.61 16.033v1.205h1.868l3.962-3.112c.103-.114.258-.27.467-.465.56-.519.687-.698.687-.963 0-.206-.023-.31-.096-.31zm.943 1.95l-.339.338c-.19.18-.529.402-.761.497l-.046.02-.003.005-.01.01c-.009.007-.013.008-.02.011a3.432 3.432 0 01-.282.093 3.058 3.058 0 01-.65.115 1.035 1.035 0 01-.31-.027.364.364 0 01-.218-.144c-.048-.074-.062-.173-.035-.295a1.11 1.11 0 01.095-.25l-3.197 2.526h4.252l.508-.582c.698-.814 1.016-1.396 1.016-1.894z" fill="#231f20"/>
    </g>

    <g id="ts">
        <path fill-rule="nonzero" clip-rule="nonzero" d="M0 1.75C0 0.783501 0.783502 0 1.75 0H14.25C15.2165 0 16
0.783502 16 1.75V3.75C16 4.16421 15.6642 4.5 15.25 4.5C14.8358 4.5 14.5 4.16421 14.5 3.75V1.75C14.5 1.61193
14.3881 1.5 14.25 1.5H1.75C1.61193 1.5 1.5 1.61193 1.5 1.75V14.25C1.5 14.3881 1.61193 14.5 1.75 14.5H15.25C15.6642
14.5 16 14.8358 16 15.25C16 15.6642 15.6642 16 15.25 16H1.75C0.783501 16 0 15.2165 0 14.25V1.75ZM4.75 6.5C4.75 6.08579
5.08579 5.75 5.5 5.75H9.25C9.66421 5.75 10 6.08579 10 6.5C10 6.91421 9.66421 7.25 9.25 7.25H8.25V12.5C8.25 12.9142
7.91421 13.25 7.5 13.25C7.08579 13.25 6.75 12.9142 6.75 12.5V7.25H5.5C5.08579 7.25 4.75 6.91421 4.75 6.5ZM11.2757
6.58011C11.6944 6.08164 12.3507 5.75 13.25 5.75C14.0849 5.75 14.7148 6.03567 15.1394 6.48481C15.4239 6.78583 15.4105
7.26052 15.1095 7.54505C14.8085 7.82958 14.3338 7.81621 14.0493 7.51519C13.9394 7.39898 13.7204 7.25 13.25 7.25C12.7493
7.25 12.5306 7.41836 12.4243 7.54489C12.2934 7.70065 12.25 7.896 12.25 8C12.25 8.104 12.2934 8.29935 12.4243
8.45511C12.5306 8.58164 12.7493 8.75 13.25 8.75C13.3257 8.75 13.3988 8.76121 13.4676 8.78207C14.1307 8.87646 14.6319
9.17251 14.9743 9.58011C15.3684 10.0493 15.5 10.604 15.5 11C15.5 11.396 15.3684 11.9507 14.9743 12.4199C14.5556 12.9184
13.8993 13.25 13 13.25C12.1651 13.25 11.5352 12.9643 11.1106 12.5152C10.8261 12.2142 10.8395 11.7395 11.1405
11.4549C11.4415 11.1704 11.9162 11.1838 12.2007 11.4848C12.3106 11.601 12.5296 11.75 13 11.75C13.5007 11.75 13.7194
11.5816 13.8257 11.4551C13.9566 11.2993 14 11.104 14 11C14 10.896 13.9566 10.7007 13.8257 10.5449C13.7194 10.4184
13.5007 10.25 13 10.25C12.9243 10.25 12.8512 10.2388 12.7824 10.2179C12.1193 10.1235 11.6181 9.82749 11.2757
9.41989C10.8816 8.95065 10.75 8.396 10.75 8C10.75 7.604 10.8816 7.04935 11.2757 6.58011Z" fill="#231f20"/>
    </g>
</svg>